<svg xmlns="http://www.w3.org/2000/svg" viewBox="0 0 442 337"><defs><style>.cls-1{fill:#fff;}.cls-2{fill:#e6e6e6;}.cls-3{fill:#009245;}.cls-4{font-size:24px;}.cls-19,.cls-4,.cls-79,.cls-8{font-family:KomikaHand, Komika Hand;}.cls-5{letter-spacing:0em;}.cls-6{letter-spacing:-0.01em;}.cls-7{letter-spacing:0em;}.cls-8{font-size:17px;}.cls-9{letter-spacing:0.05em;}.cls-10{letter-spacing:0.03em;}.cls-11{letter-spacing:0em;}.cls-12{letter-spacing:0.01em;}.cls-13{letter-spacing:-0.12em;}.cls-14{letter-spacing:0.05em;}.cls-15{fill:#6e9db7;}.cls-16{fill:#6d4e41;}.cls-17{fill:#efc7b0;}.cls-18{fill:#202020;}.cls-19{font-size:18px;}.cls-20{letter-spacing:0em;}.cls-21{letter-spacing:0em;}.cls-22{letter-spacing:0em;}.cls-23{letter-spacing:0.02em;}.cls-24{letter-spacing:0.01em;}.cls-25{letter-spacing:0.01em;}.cls-26{letter-spacing:0em;}.cls-27{letter-spacing:0em;}.cls-28{letter-spacing:-0.01em;}.cls-29{letter-spacing:0em;}.cls-30{letter-spacing:0.03em;}.cls-31{letter-spacing:0.03em;}.cls-32{letter-spacing:0.01em;}.cls-33{letter-spacing:-0.01em;}.cls-34{letter-spacing:-0.09em;}.cls-35{letter-spacing:0.01em;}.cls-36{letter-spacing:0.02em;}.cls-37{letter-spacing:0.01em;}.cls-38{letter-spacing:0.01em;}.cls-39{letter-spacing:-0.01em;}.cls-40{letter-spacing:-0.04em;}.cls-41{letter-spacing:0.01em;}.cls-42{letter-spacing:0.01em;}.cls-43{letter-spacing:0.01em;}.cls-44{letter-spacing:0.02em;}.cls-45{letter-spacing:0.03em;}.cls-46{letter-spacing:-0.01em;}.cls-47{letter-spacing:-0.02em;}.cls-48{letter-spacing:0.04em;}.cls-49{letter-spacing:-0.06em;}.cls-50{letter-spacing:0em;}.cls-51{letter-spacing:-0.01em;}.cls-52{letter-spacing:0em;}.cls-53{letter-spacing:0.01em;}.cls-54{letter-spacing:0.02em;}.cls-55{letter-spacing:0.01em;}.cls-56{letter-spacing:-0.03em;}.cls-57{letter-spacing:0.01em;}.cls-58{letter-spacing:0.03em;}.cls-59{letter-spacing:0.03em;}.cls-60{letter-spacing:0em;}.cls-61{letter-spacing:0.01em;}.cls-62{letter-spacing:0.02em;}.cls-63{letter-spacing:0.01em;}.cls-64{letter-spacing:0.01em;}.cls-65{letter-spacing:0.03em;}.cls-66{letter-spacing:-0.02em;}.cls-67{letter-spacing:-0.02em;}.cls-68{letter-spacing:0em;}.cls-69{letter-spacing:0.01em;}.cls-70{letter-spacing:0.01em;}.cls-71{letter-spacing:0.03em;}.cls-72{letter-spacing:-0.02em;}.cls-73{letter-spacing:0.04em;}.cls-74{letter-spacing:0.01em;}.cls-75{letter-spacing:-0.09em;}.cls-76{letter-spacing:0.01em;}.cls-77{letter-spacing:0.03em;}.cls-78{letter-spacing:-0.02em;}.cls-79{font-size:11px;letter-spacing:0.01em;}.cls-80{font-family:Impact, Impact;}.cls-81{letter-spacing:0.01em;}</style></defs><title>99-percent</title><g id="BGs"><rect class="cls-1" width="442" height="335"/><rect class="cls-2" x="2.5" y="2.5" width="436.5" height="77"/></g><g id="character"><g id="_" data-name="??"><path d="M39.27,146.53a5.08,5.08,0,0,0-1.62,6,4,4,0,0,0,5.81,2,4.65,4.65,0,0,0,1.78-6.32,4.52,4.52,0,0,0-6.11-1.74,1.17,1.17,0,0,0,1.18,2c2.41-1.45,4.48,2.57,2,4s-3.61-2.69-1.82-4c1.22-.87,0-2.91-1.18-2Z"/><path d="M17.65,130.84c-1.38-3.83,2.19-8.22,4.76-10.62a13,13,0,0,1,4-2.87c2.93-1,3.31.36,4.34,2.15,3.1,5.39-1.13,12.35-.52,17.87,1,9.37,10.16,1.52,13.23-1.76,1-1.1-.62-2.76-1.66-1.66a38.27,38.27,0,0,1-3.27,3.18q-3.48,4.37-5.69-2.59L33.2,133a50.47,50.47,0,0,0,.63-8.78c-.18-2.78-.31-9-3.62-10.17-3.47-1.24-8.44,3.34-10.54,5.58-2.88,3.09-5.84,7.5-4.29,11.82.51,1.41,2.78.8,2.26-.62Z"/><path d="M60.64,149.2A3.09,3.09,0,0,0,64,152.13c2-.17,3.27-2.31,3.81-4.07s.36-4.2-1.62-5.07a2.41,2.41,0,0,0-2.35.14c-.92.66-.63,2.17-.67,3.17-.06,1.51,2.29,1.51,2.35,0l.09-2.15-.58,1c.64-.36.75,1,.73,1.27a5.28,5.28,0,0,1-.57,1.92c-.23.46-.6,1.19-1.13,1.37s-1,.06-1.08-.52c-.11-1.5-2.46-1.51-2.35,0Z"/><path d="M50.69,126.95c.28-3.08,2.38-5,4.84-6.56a7.46,7.46,0,0,1,1.95-1.07c2.73-.55,2.63,1.08,2.11,3-1,3.71-3.08,7.64-3.18,11.55-.18,7.09,7.94,5.35,12.18,3.23,1.35-.68.16-2.7-1.18-2-1,.51-4.95,2.3-6.25,1.65-2.12-1.07-2.45-3.23-2-5.18.66-2.65,1.64-5.24,2.43-7.85.64-2.1,1.9-5.72-.65-7.15s-6.7,1.73-8.47,3.12a10,10,0,0,0-4.17,7.32c-.14,1.5,2.21,1.49,2.35,0Z"/></g><g id="content"><g id="leaf"><path class="cls-3" d="M338.45,241.09a122,122,0,0,1,.36-13.54"/><path d="M339.26,241.09a131.22,131.22,0,0,1,.36-13.54c.08-1-1.53-1-1.61,0a131.22,131.22,0,0,0-.36,13.54.81.81,0,0,0,1.61,0Z"/><path class="cls-3" d="M338.14,224.92c-1.34-1.12-1.68-3-1.88-4.76-1.14-10.07-.43-20.25.28-30.36.36-5.16.83-10.63,3.91-14.8,2.43,3.46,2,8.09,1.62,12.3a151,151,0,0,0-.09,25.22c.28,3.51.66,7.19-.73,10.42l1.14-10.77a37.15,37.15,0,0,1,1.82-9.38,37.15,37.15,0,0,1,5-8.4l5.66-7.78"/><path d="M338.71,224.35c-1.78-1.82-1.74-4.74-1.93-7.12-.16-2-.25-3.91-.29-5.87-.1-4.25,0-8.5.28-12.75.41-7.54-.12-16.74,4.37-23.21h-1.39c2.15,3.37,1.9,7.28,1.58,11.1-.33,4-.57,8-.63,11.95s.05,8.09.33,12.13.94,8.21-.55,12.15l1.58.21c.67-6.33.58-13.49,2.78-19.52s7-11.26,10.77-16.4c.61-.84-.79-1.64-1.39-.81-3.83,5.26-8.72,10.58-10.93,16.78s-2.15,13.46-2.84,19.95c-.1,1,1.28,1,1.58.21,1.44-3.78,1-7.66.68-11.61q-.52-7-.38-14.07c.08-4.35.51-8.65.76-13,.2-3.48,0-6.89-2-9.9a.82.82,0,0,0-1.39,0c-4.8,6.92-4.23,17-4.64,25-.25,4.9-.36,9.8-.12,14.7.18,3.57-.12,8.44,2.58,11.19.73.74,1.87-.4,1.14-1.14Z"/><path class="cls-3" d="M355.42,188.71l-12,33.19c2.91-6.32,5.86-12.72,10.29-18.08s10.56-9.67,17.48-10.41l-29,32.65c5.89-7.53,14.9-11.82,23.67-15.61-5.31,7.75-14.28,12-22.83,15.86,5-1.27,10.5-2.53,15.32-.56a54.78,54.78,0,0,1-21.51,1"/><path d="M354.65,188.49l-12,33.19c-.31.85,1.09,1.45,1.47.62,5.44-11.82,12.55-26.27,27.07-28.1l-.57-1.37-29,32.65,1.14,1.14c6-7.53,14.83-11.73,23.51-15.48l-1.1-1.1c-5.44,7.71-14.2,11.78-22.55,15.57-.85.39-.24,1.69.62,1.47,4.92-1.23,10-2.38,14.89-.56V225a55.71,55.71,0,0,1-21.09,1c-1-.15-1.45,1.41-.43,1.55a57.87,57.87,0,0,0,21.94-1,.81.81,0,0,0,0-1.55c-5.18-1.91-10.57-.74-15.75.56l.62,1.47c8.64-3.93,17.49-8.18,23.12-16.15.52-.74-.45-1.38-1.1-1.1-8.8,3.81-17.71,8.1-23.84,15.73-.64.79.44,1.93,1.14,1.14l29-32.65c.41-.46.18-1.47-.57-1.37-15.2,1.92-22.71,16.41-28.46,28.9l1.47.62,12-33.19c.35-1-1.2-1.4-1.55-.43Z"/><path class="cls-3" d="M337.72,224.65A72.25,72.25,0,0,0,319,187.71c4,6.42,4.65,14.38,7.65,21.34,2.23,5.18,5.74,9.7,9.2,14.15-6.81-12.72-20.8-19.57-33.9-25.6a50.49,50.49,0,0,0,9.06,7.65l27.33,19.63a79.05,79.05,0,0,0-31.85-9.49,41.79,41.79,0,0,0,28,8.07c-6.09,1-12.6,2.17-17,6.51a36.12,36.12,0,0,1,18.7-3.87,35.58,35.58,0,0,1-.36,16.9l2.46-1c-.7.25-1.08-.81-1.06-1.55l.32-13.9"/><path d="M338.49,224.44a73.94,73.94,0,0,0-18.92-37.3.81.81,0,0,0-1.26,1c3.57,5.91,4.44,12.8,6.79,19.19,2.26,6.15,6.2,11.34,10.18,16.46.58.74,1.69-.2,1.26-1-7.2-13.1-21.17-19.89-34.19-25.89a.81.81,0,0,0-1,1.26c4.74,5.31,11.13,9.14,16.86,13.26l19.7,14.14.81-1.39a81.72,81.72,0,0,0-32.26-9.6c-.88-.07-1,1.08-.41,1.5a43.13,43.13,0,0,0,28.43,8.18l-.21-1.58c-6.22,1-12.6,2.26-17.33,6.72-.69.65.19,1.66,1,1.26a36.48,36.48,0,0,1,18.3-3.76l-.78-.59a36.11,36.11,0,0,1-.36,16.47c-.14.54.39,1.23,1,1l2.46-1a.81.81,0,0,0-.21-1.58c-.57,0,0-13.47.06-14.64a.81.81,0,0,0-1.61,0l-.28,11.91c0,1.65-.4,4.19,1.82,4.34l-.21-1.58-2.46,1,1,1a38,38,0,0,0,.36-17.33.82.82,0,0,0-.78-.59,38.15,38.15,0,0,0-19.11,4l1,1.26c4.51-4.25,10.72-5.35,16.62-6.31.89-.15.69-1.64-.21-1.58a41.75,41.75,0,0,1-27.61-8l-.41,1.5a79.72,79.72,0,0,1,31.45,9.38.81.81,0,0,0,.81-1.39l-18.89-13.56c-5.89-4.23-12.48-8.14-17.34-13.59l-1,1.26c12.76,5.89,26.55,12.47,33.61,25.31l1.26-1C332,217,328,211.36,325.85,204.48c-1.83-5.83-2.94-11.88-6.14-17.18l-1.26,1a72.42,72.42,0,0,1,18.5,36.59c.19,1,1.74.59,1.55-.43Z"/></g><text class="cls-4" transform="translate(258.13 145.31)"><tspan class="cls-5">9</tspan><tspan class="cls-6" x="14.32" y="0">9</tspan><tspan x="28.47" y="0">%</tspan></text><text class="cls-4" transform="translate(394.13 145.31)"><tspan class="cls-7">1</tspan><tspan x="6.74" y="0">%</tspan></text><text class="cls-8" transform="translate(312 145)"><tspan class="cls-9">..</tspan><tspan class="cls-10" x="7.4" y="0">.</tspan><tspan class="cls-11" x="10.8" y="0">i</tspan><tspan x="21.63" y="0">s </tspan><tspan class="cls-12" x="37.41" y="0">i</tspan><tspan class="cls-13" x="48.42" y="0">t</tspan><tspan class="cls-14" x="58.54" y="0">..</tspan><tspan x="65.94" y="0">.</tspan></text><path d="M308.69,187.85a189.34,189.34,0,0,0-24.76-29.8.51.51,0,0,0-.85.35l-.19,9.77,1-.13a49,49,0,0,1-1.06-6.53,9.84,9.84,0,0,1-.14-2.41c.21-1.16.58-1,1.74-1.07a41.77,41.77,0,0,1,11.1,1.26c.62.15.89-.81.27-1a43.69,43.69,0,0,0-13.64-1.17.51.51,0,0,0-.5.5,50.52,50.52,0,0,0,1.27,10.66.5.5,0,0,0,1-.13l.19-9.77-.85.35a188.06,188.06,0,0,1,24.6,29.6c.36.53,1.22,0,.86-.5Z"/><path d="M371.75,188.91a96.4,96.4,0,0,0,9.43-16.53c2.52-5.49,5-11,9.17-15.51A.51.51,0,0,0,390,156a18.34,18.34,0,0,0-9.32,2.5c-.48.27-.16,1.12.39.91l3.5-1.34,1.75-.67a3.5,3.5,0,0,1,3.17-.22c2.71.87,5,3.48,7.17,5.32.49.41,1.2-.29.71-.71L393,158.17c-.93-.78-2.06-2.11-3.25-2.51s-2.21.22-3.3.64l-5.69,2.18.39.91A17.31,17.31,0,0,1,390,157l-.35-.85c-4,4.35-6.54,9.64-9,15a100.31,100.31,0,0,1-9.77,17.27c-.38.52.49,1,.86.5Z"/></g><g id="bubbles"><path d="M429.14,123.63C420,109,401.07,105.57,385.43,102.45c-21.67-4.32-44-7.39-66.11-7.51-19-.1-38.58,2.81-55.21,12.59-15.25,9-28.13,24-25.43,42.67,1.34,9.28,5.64,17.72,10.32,25.72,5.56,9.51,11.36,18.89,17.08,28.3,10,16.4,20.67,32.91,36.52,44.23,30.37,21.7,73.45,13.28,100.9-9.54a60.68,60.68,0,0,0,17.66-23.22c4.19-10.13,5.55-21.28,6.84-32.08,1.54-12.86,2.35-25.8,2.95-38.74.26-5.68,1.12-11.75.59-17.42-.26-2.73-1.1-4.74-3.71-5.75-.73-.28-1,.89-.32,1.17,4.7,1.81,2.67,11.49,2.52,15.19-.2,4.85-.42,9.71-.68,14.56-.55,10-1.28,20-2.45,30-2.18,18.7-5.39,36.89-19.17,50.76-24.18,24.33-67.46,35.63-98.29,18-15.79-9-27.12-23.68-36.73-38.79-5-7.79-9.65-15.75-14.42-23.64-4.88-8.07-10.21-16.06-14.05-24.7-4.32-9.72-6.67-20.81-2.66-31,3.32-8.47,10.06-15.45,17.28-20.79,14.67-10.84,33.11-15.18,51.05-16.09,21.85-1.11,44.16,1.72,65.65,5.48,17.63,3.09,42.11,5.69,52.53,22.41.41.66,1.47.05,1.05-.61Z"/><path d="M183.56,130.46a2.92,2.92,0,0,0-3.52,3.13,3.44,3.44,0,0,0,4.49,2.61,4.33,4.33,0,0,0,2.64-5.16,2.84,2.84,0,0,0-4.54-1.53c-.59.49.26,1.33.84.84,1.36-1.13,2.7.57,2.67,1.89a3.16,3.16,0,0,1-1.76,2.74,2.31,2.31,0,0,1-3-1,1.7,1.7,0,0,1,1.85-2.39c.75.17,1.07-1,.32-1.15Z"/><path d="M200.69,113.18c-4.33-.3-8.45,3.52-7.9,8,.52,4.27,5.32,7.33,9.43,6.18a8.08,8.08,0,0,0,5.13-10.18c-1.52-4.17-6.41-6.07-10.48-4.79-.73.23-.42,1.38.32,1.15a7.36,7.36,0,0,1,8.63,3.16,6.87,6.87,0,0,1-2.77,9.05c-3,1.67-7.13,0-8.57-3.06-2-4.19,2-8.6,6.23-8.31.77.05.76-1.14,0-1.19Z"/><path d="M226.85,105.59a8.61,8.61,0,0,0-10.54,9.17c.36,5.87,6,10.15,11.72,9.59s10.66-6.77,9.24-12.62-11.55-8.18-16.55-6.88A.6.6,0,0,0,221,106c3.84-1,10.86.52,13.75,3.56,4.08,4.29-.27,11.75-5,13.23a9.64,9.64,0,0,1-11.43-5.1c-2.61-5.65,1.8-12.43,8.23-11,.75.17,1.07-1,.32-1.15Z"/></g><g id="lady"><path class="cls-15" d="M176.51,298.49a19.6,19.6,0,0,1-8.35-9.14c-.68-1.38-1.32-2.8-2.13-4.11-.91-1.47-2.71-2.89-2.82-4.7.29-1.57-1.29-2.52-2.7-2.36-.1-.11-.21-.21-.31-.32,4.59-4.7,9.32-9.34,15-12.67,3.49-2,7.16-3.68,9.19-6.81a1.49,1.49,0,0,0,1.37-.72c3-4.34-1.62-9.39-4.56-12.53a44.16,44.16,0,0,1-6.76-9.18c-1.32-2.4-2.59-5-4.91-6.49a7.75,7.75,0,0,0-1.18-1.94,33.31,33.31,0,0,0-3.84-4,35.26,35.26,0,0,0-3.13-2.72c-2.84-3.93-9.07-5.74-12.3-1-.23.33-.44.66-.64,1a16,16,0,0,0-10.53,2.93c-4.39,3-6.49,7.33-9.63,11.45-.37.49-.76,1-1.14,1.43a70.37,70.37,0,0,0-5.88-8.81c-.09-.12-.19-.22-.29-.33a8.09,8.09,0,0,0-1.36-5.34c-1.32-1.79-1.51-3.46-3.34-5.06a28.47,28.47,0,0,0-5.62-3.42,23.59,23.59,0,0,0-6.32-1.94,10.86,10.86,0,0,0-6.18-3.61c-5.36-1-9.57,1.8-11.84,6.1l-.18-.12a12.33,12.33,0,0,0-1.46,4.34c-2.19,6.08-5.87,11.47-7.57,17.84-2,7.46-3.11,15.15-5.11,22.63-1.89,7.08-4.12,14.09-6.58,21-2.53,7.09-5.91,14.16-7.85,21.46a2.12,2.12,0,0,0-.16.21q-6.88,10.92-12.78,22.39c-1.08,2.11,1.81,3.91,3.38,2.25a17.48,17.48,0,0,1,1.57-1.47l.08,0c.55-.24,1.09-.51,1.61-.77,6.22-3,12.48-5.92,18.74-8.83l.19,0A1.7,1.7,0,0,0,72.4,315c6.71-5.4,16.09-4.7,23.32-9.12,2.33-.1,4.66-.27,7-.45,7.35-.55,14.68-1.25,22-1.95,4.79-.45,10.09-.67,14.32-3.06l.41.05c3.65.56,7.06,1.59,10.82,1.16a14.33,14.33,0,0,0,2.37-.49,11.64,11.64,0,0,0,5.8-.8c5.6.74,11,1.94,16.69,2.32A2.22,2.22,0,0,0,176.51,298.49ZM150.83,239c2.22.5,4.41,1.14,6.65,1.64a4.56,4.56,0,0,0,1,1.88c1.06,1.27,2.77,1.95,3.95,3.1a9.47,9.47,0,0,1,2.95,7.26c-.29,4.87-5.16,8.4-8,12.13A78,78,0,0,0,154,253.35C152.41,248.64,151.82,243.85,150.83,239Zm13.23,58.33a1.66,1.66,0,0,0,0-.74l.8.29.18.1a2.14,2.14,0,0,0-.07.46Z"/><g id="hair"><path class="cls-16" d="M173.19,133.09c-2.6-9.77-13.54-15.19-23.06-19.52-5.05-4.2-13.9-5.21-19.66-5.57a41.37,41.37,0,0,0-25.24,6.13c-7,4.5-13.06,11.26-18.15,17.83a40,40,0,0,0-6.67,12.55,7,7,0,0,0-2.55,4.33c-1.17,7.94-3.06,16.17-3,24.22,0,7.76-1.8,15.28-1.06,23.26a16.16,16.16,0,0,0,1.28,5v0a70.73,70.73,0,0,0-.2,9.21c.07,1.55,2.51,2.12,3.1.59.23-.6,1.06-1.88,1.45-2.7a10.09,10.09,0,0,0,1.17.48c.81.35,1.46.86,2.2,1.21a3,3,0,0,0,2.18.26c.41-.08.65-.5,1-.65l.06,0c.67.15,1.36.25,2.06.33a2.84,2.84,0,0,0,1.7,1.4,1.55,1.55,0,0,0,2.1-.89c5.82,1.08,12.11,3.38,16.61-1.36,2-2.07,2.52-6.43.53-8.73-1.35-1.56-3.25-2.66-4.33-4.27a9.28,9.28,0,0,1-.89-1.79,7.85,7.85,0,0,0,5.77-8.5c-.83-9.25-1.75-18.5-2.64-27.75a71.53,71.53,0,0,0-1.08-7.82,16.86,16.86,0,0,1,1.14-4.81c1.68-3.93,9.38-6.17,13.28-7.73a83.81,83.81,0,0,1,8-2.75c3.4-1,3.64-1.6,6.14.76,3.95,3.73,8.75,2.58,11.79-.45,1.14.72,2.3,1.43,3.47,2.11s3.08,1.5,4.88,2.4a4.57,4.57,0,0,0,1.81,3.16l.62.44c.07.11.19.25.37.47a10.79,10.79,0,0,0,2.85,2.9,8,8,0,0,0,7.34.36C173.08,144.84,174.67,138.63,173.19,133.09Z"/><path class="cls-16" d="M180,201.05l-.18-.14a10.11,10.11,0,0,0,0-4.41c-.5-2.27-.44-2.54-.82-5.05a16.86,16.86,0,0,0-1.11-4,12.65,12.65,0,0,1-.55-1.23c0-.28-.06-.56-.11-.85-.67-4-3.81-7.27-8.13-6.93a7.68,7.68,0,0,0-6.93,8.13,12.3,12.3,0,0,1,0,3.07,5.74,5.74,0,0,0-.66.93l-.12.17-.16.23c-.07.11-.15.22-.22.34l-.17.29A9.8,9.8,0,0,0,155,203.88c1.61,4.56,7.52,8,12.26,5.86,2.68-1.22,4.34-1.29,6.85-2.25a9,9,0,0,0,4.7-4,1.33,1.33,0,0,0,1.15-.32A1.39,1.39,0,0,0,180,201.05Z"/></g><path id="face" class="cls-17" d="M175.17,176.29c.07-.29.15-.57.23-.85a3.28,3.28,0,0,1,0-.37,9.39,9.39,0,0,0-.38-2.78,16.59,16.59,0,0,0,0-5,1.38,1.38,0,0,0-.84-1.11,6.1,6.1,0,0,1,1.29-3c-.2-.83-.41-1.67-.65-2.54a47.93,47.93,0,0,0-4.7-10.74h0a4.16,4.16,0,0,1-3.24-3.74c-.15-.23-.28-.48-.41-.65a22.37,22.37,0,0,0-1.92-2c-1.39-1.33-2.88-2.55-4.29-3.86a4.07,4.07,0,0,1-.88-1.17l-1.23-.7c-3.19-1.88-5.78-5.49-10.18-6.32-3-.56-4.89.17-7.57,1.1a91.6,91.6,0,0,1-9.34,2.19q-7.81,1.8-15.52,4c-2.88.82-6.56,2.08-9.14,4.26-1,.16-1.92.31-2.88.45a1.92,1.92,0,0,0-1.42,3,14,14,0,0,0,1.26,1.44h0a7.88,7.88,0,0,0,.7,4.57,3.25,3.25,0,0,0,0,2.56h0c0,.58,0,1.21,0,1.58-.36,5.23,0,10.59-.71,15.78-.62,4.5-1.78,8.93-2.77,13.37a1.78,1.78,0,0,1,.11.66,65.72,65.72,0,0,1-.33,7.4c0,.95-.08,1.9-.19,2.85-.39,3.26-1.25,6.18.68,9.16s4.26,5,5.87,7.89l.14.14c1.2,1.22,2.3,2.38,3.41,3.46a2.1,2.1,0,0,1,1.45-.27l.29.07c.71.54,1.43,1,1.92,1.37,1.77,1.3,3.91,2.48,5.91,1.76a2.36,2.36,0,0,1-.1,2.69,22.49,22.49,0,0,0-1.79,3,2.83,2.83,0,0,0,0,.39c.25,1.41,1.8,2.89,2.62,4,1.13,1.5,2.3,3,3.47,4.43a1.64,1.64,0,0,0,1.3,1.63l.77,1a1.63,1.63,0,0,0,2.54.16,46.67,46.67,0,0,1,12.18-9.12.9.9,0,0,0,.49-.79,21.51,21.51,0,0,0,6.65-3.51,1.13,1.13,0,0,0,.39-1l.12-.08a1.32,1.32,0,0,0,.38-.34h.07c1.67,1,4.28.7,5.94-.09a5.75,5.75,0,0,0,3.23-4.45,6.4,6.4,0,0,0,.66-1.1,45.66,45.66,0,0,0,5.27-9.06c-.62-2.82.78-5.44,1.63-8.1,1-3.21,1.83-6,4.57-8.2l.1-.06c1.61-4.2,3.24-8.39,4.77-12.62.07-.18.12-.36.18-.54A3.47,3.47,0,0,1,175.17,176.29Z"/><path class="cls-17" d="M158.69,285.52a19,19,0,0,1-.28-2.86,10.16,10.16,0,0,1,.7-2.53c.71-2.73-2.15-4.58-3-6.93a2.4,2.4,0,0,0-1.72-1.5,3.36,3.36,0,0,0-.41-.6c-1.24-1.44-2.92-.93-4.51-.47a19.92,19.92,0,0,1-5.39,1,6.54,6.54,0,0,0-2.11.13c-2.68.89-2.15,3-.81,5.1a1.78,1.78,0,0,0,.15.62,19.84,19.84,0,0,0,8.46,9.9c1.88,1.83,4,3.23,6.53,3.25a2.21,2.21,0,0,0,1.83-1.24A7.57,7.57,0,0,0,158.69,285.52Z"/><g id="eyes"><path class="cls-1" d="M164.63,163.77c-.43-.18-1-.27-1.38-.46-.9-.39-.29-.22-.93-.77a3.54,3.54,0,0,0-2-1,11.6,11.6,0,0,0-6.07,1.25,1.87,1.87,0,0,0-1.45,1,6.17,6.17,0,0,0-.42,3.28,1.63,1.63,0,0,0,2.15,1.4,35.08,35.08,0,0,1,9.78-3.2C165.06,165.17,165.41,164.1,164.63,163.77Z"/><path class="cls-1" d="M124.87,167.55,123,163a1.54,1.54,0,0,0-1.23-1,2.14,2.14,0,0,0-.94-1.47c-1-.77-2.59-.57-3.79-.8s-2.7-1.35-4-1.1a1.66,1.66,0,0,0-1.41,1.26c-.56,1.9-1.14,3.51-.76,5.51a12,12,0,0,0,2.06,5c1.11,1.33,2.6,1,4,.45a15.85,15.85,0,0,1,6.48-1.17A1.65,1.65,0,0,0,124.87,167.55Z"/><path d="M141.24,167.44a11.82,11.82,0,0,0,.66-3.5.59.59,0,0,0-1-.35,6.48,6.48,0,0,0-.7-.24,9,9,0,0,0-3.06-.54.64.64,0,0,0-.51.26l-13.37-2.35a1.2,1.2,0,0,0-1.34,1.56c.65,2.11,1.64,4.76,3.33,6.29a4.1,4.1,0,0,0,.46.34.78.78,0,0,0,.31.7l0,0a1,1,0,0,0,1.24.08l.1-.06c1.45.36,3.07.31,4.53.56a11.46,11.46,0,0,0,2.54.14,1.07,1.07,0,0,0,.91.9,8.67,8.67,0,0,1,3.16.9,1,1,0,0,0,1.32-.45q.25-.56.52-1.11a7.13,7.13,0,0,0,1.2-2A.91.91,0,0,0,141.24,167.44Z"/><path d="M174.89,161.63c0-1,0-3.29-.83-4.5,0-.15,0-.31,0-.46a.9.9,0,0,0-1.38-.66c-1.14.65-2.38,1.21-3.59,1.82a45.79,45.79,0,0,1-5.5,1.58.56.56,0,0,0-.45.69l-1.39.21c-.83.12-1.21,1.35-.33,1.73l.2.07a1.17,1.17,0,0,0,.51,1.52,15,15,0,0,0,3.79,1.61,21,21,0,0,0,5.09-.42c.5-.06,1-.12,1.4-.21a1,1,0,0,0,.82.51,1,1,0,0,0,1.09-.85,2,2,0,0,0,0-.55A2.84,2.84,0,0,0,174.89,161.63Z"/></g><path class="cls-2" d="M113.08,323.35a20.58,20.58,0,0,0-.74-5,51.91,51.91,0,0,0-.82-5.23V313h0l-.06-.31a28.94,28.94,0,0,0-.45-5.89c0-.06,0-.11,0-.17a1.56,1.56,0,0,0-1.21-2.62,25.16,25.16,0,0,0-7.69,1.15c-1.83.53-3.63,1.27-5.44,1.87-.91.31-4.29.66-3,1.25a2.12,2.12,0,0,0-2.9,2.58c.95,3.16-.05,6.22.65,9.33-1.43,4.07,1.64,9.71,2.94,13.44a1.92,1.92,0,0,0,.75,1,2,2,0,0,0,3.69-.59c.07-.49.12-1,.16-1.46a2.09,2.09,0,0,0,.62-.6,2.27,2.27,0,0,0,.87-.13,2.26,2.26,0,0,0,3.15-1.43,2.7,2.7,0,0,0,.62-.25,2.48,2.48,0,0,0,1.26,0,2.44,2.44,0,0,0,2.9-.81,1.94,1.94,0,0,0,1.47-.76l0,0a2.17,2.17,0,0,0,1.27-.47,2.36,2.36,0,0,0,1.87-1.27l.51-1.18A2.18,2.18,0,0,0,113.08,323.35Z"/><path class="cls-2" d="M140,321.29c.47-5.46,1.11-11.9-.64-17.18,0-.08-.06-.15-.1-.23a2.09,2.09,0,0,0-1.52-2.79c-5.63-1.54-12.79.59-18.37,1.8-2.35.51-2.54,3.81-1,5.19.37.33.65,4.16.77,4.92.37,2.27.46,4.57.82,6.83.59,3.76.07,8,1.46,11.56,1,2.5,4.89,2.4,5.36-.4.11-.63.18-1.26.26-1.88a2.53,2.53,0,0,0,1.22-1.71,1.88,1.88,0,0,0,.64-.26,2.7,2.7,0,0,0,1,0,2.66,2.66,0,0,0,1.32,0,2.87,2.87,0,0,0,4.32-1.08,65.55,65.55,0,0,0,2.76-3l.05,0A1.94,1.94,0,0,0,140,321.29Z"/><g id="outline"><path d="M142.51,162.3c-3.2-5.82-12.54-7.18-18.45-8-5.71-.75-12.92.86-13.7,7.64-.69,6,3.57,12.22,8.56,15.17a16.17,16.17,0,0,0,17.7-.82,15,15,0,0,0,5.51-8.58c.56-2.54.67-5.63-1.6-7.33-.52-.39-1,.48-.5.86,3,2.25,1,7.91-.57,10.42a13.92,13.92,0,0,1-8.21,6.17c-6.92,1.91-14.1-1.47-17.72-7.51-1.68-2.8-2.89-6.52-1.87-9.75,1.4-4.43,6.33-5.69,10.46-5.47a45.9,45.9,0,0,1,10.42,2c3.4,1,7.31,2.36,9.12,5.65.31.56,1.17.06.86-.5Z"/><path d="M141.1,162.79a144.42,144.42,0,0,1-14.74-1.94c-2.23-.4-4.45-.83-6.67-1.27s-4.84-.71-7-1.86c-.57-.31-1.07.56-.5.86a19.93,19.93,0,0,0,5.77,1.68c2.69.54,5.39,1.07,8.09,1.55a147,147,0,0,0,15,2c.64,0,.64-1,0-1Z"/><path d="M138.8,171.48a36.59,36.59,0,0,0-26.23.63c-.59.24-.33,1.21.27,1a35.73,35.73,0,0,1,25.7-.63c.61.22.87-.75.27-1Z"/><path d="M152.33,166.49c-.28-6.11,6.17-8.57,11-10,2.54-.75,6-1.76,8.6-1,3.55,1.07,2.73,5.59,1.88,8.24-1.48,4.6-5.14,8.52-10,9.44a9.88,9.88,0,0,1-11.68-7.34c-.14-.63-1.11-.36-1,.27a10.83,10.83,0,0,0,12.11,8.16c6.39-.82,11.14-6.46,12.07-12.65.31-2.08.36-5-1.56-6.44-2.41-1.75-6.79-.72-9.39-.05-5.61,1.45-13.39,4.28-13.07,11.34,0,.64,1,.64,1,0Z"/><path d="M152.1,163.71a117.61,117.61,0,0,0,21-7.62c.58-.28.07-1.14-.5-.86a116.22,116.22,0,0,1-20.8,7.52.5.5,0,0,0,.27,1Z"/><path d="M153,169.85a61.66,61.66,0,0,1,20.11-4.47c.64,0,.64-1,0-1a62.5,62.5,0,0,0-20.38,4.51c-.59.24-.33,1.21.27,1Z"/><path d="M148.23,154.86c2.36,2.7,5.79,1.9,8.68.57s11.11-7.09,14-3.56c.41.5,1.11-.21.71-.71-2-2.41-5.84-.94-8.2,0-3.91,1.59-10.78,7.2-14.48,3-.42-.49-1.13.22-.71.71Z"/><path d="M141.94,157.33c-7.24-8.58-17.36-13.64-27.28-18.46-.58-.28-1.08.58-.5.86C124,144.52,134,149.52,141.23,158c.42.49,1.12-.22.71-.71Z"/><path d="M149.54,173.67l5.13,4a21.61,21.61,0,0,1,2.45,2.05c1.43,1.52.79,2.8-.78,3.75a45.7,45.7,0,0,1-5.8,3c-1.06.45-2.13.87-3.22,1.24q-.83.28-1.67.53-1.83.82-2.92-1.62c.47-.44-.24-1.15-.71-.71-1.38,1.29-.38,3.26,1.31,3.59s3.58-.59,5.09-1.13a47.34,47.34,0,0,0,5-2.12c1.79-.89,6.43-2.47,5.8-5.17-.35-1.5-2-2.66-3.08-3.54-1.94-1.56-3.91-3.07-5.87-4.61-.5-.39-1.21.31-.71.71Z"/><path d="M157.86,196.58c.94-1.41,2-3.22,1.19-5-.71-1.49-2.18-1.68-3.67-1.37a20.65,20.65,0,0,0-6.9,3.34,29.78,29.78,0,0,0-3.07,2.44c-.77.69-5.12,4.85-5.66,2-.12-.63-1.09-.36-1,.27.65,3.4,4.62.85,6.08-.41a37.16,37.16,0,0,1,6.28-4.75,12.41,12.41,0,0,1,3.72-1.68q1.22-.71,2.13.65,2,.38,1.08,1.78a5.61,5.61,0,0,1-1.08,2.18c-.36.54.51,1,.86.5Z"/><path d="M123.72,215.23a69.79,69.79,0,0,0-8.31-15.35l-.43.75c2.83.18,5.87.33,8.42,1.72s3.46,3.69,4.67,6.29c1.56,3.37,4.6,4.43,8.15,4.17,3.28-.24,7.66-1,9.4-4.15a3.85,3.85,0,0,0-3-5.9l.35.85c2.23-1.88,5.3-.35,6,2.24a6.69,6.69,0,0,1-1.34,5.64,16.09,16.09,0,0,1-8.73,5.63.5.5,0,0,0,.27,1c4.76-1.36,10.9-5.06,11-10.68.06-4.14-4.33-7.51-7.89-4.51-.36.3,0,.82.35.85,3.73.29,2.7,4,1.33,5.43a7.21,7.21,0,0,1-3.11,1.76,20.24,20.24,0,0,1-5,.89,8.24,8.24,0,0,1-4.6-.84c-1.87-1.1-2.36-3.1-3.18-4.94-2.37-5.29-7.89-6.1-13.11-6.43a.5.5,0,0,0-.43.75,68.77,68.77,0,0,1,8.21,15.11c.23.59,1.2.33,1-.27Z"/><path d="M149.91,209.52l2.05,1.62-.52,1.69a8.16,8.16,0,0,1-1.2,1.5,31.23,31.23,0,0,1-2.78,2.67,32.45,32.45,0,0,1-6.63,4.43c-.57.29-.07,1.15.5.86,3.9-2,8.34-5,10.78-8.68,1.43-2.18.79-5.88-2.47-5.06a.5.5,0,0,0,.27,1Z"/><path d="M148.84,216.75q3.1,1.52,1.54,3.74a11,11,0,0,1-1.2,1.69,15.84,15.84,0,0,1-2.06,2,32.82,32.82,0,0,1-5.48,3.45,56.07,56.07,0,0,0-9.6,5.86c-6.7,5.52-11.39,13.26-16.35,20.27-.37.53.49,1,.86.5,3.48-4.91,6.81-10,10.71-14.58a42,42,0,0,1,12.89-10.14c3.82-2,7.92-4,10.49-7.62.94-1.32,1.84-3.15,1-4.76a2.6,2.6,0,0,0-3.1-1.38.5.5,0,0,0,.27,1Z"/><path d="M122.18,215.31c.3,7.2-7,13.29-11.82,17.79-4.16,3.9-9.56,7.67-9.44,14a.5.5,0,0,0,1,0c-.08-4.26,2.64-7.37,5.61-10.08,2.54-2.33,5.09-4.61,7.48-7.1,3.84-4,8.43-8.64,8.18-14.61,0-.64-1-.64-1,0Z"/><path d="M174,166.26c2.79,11.45-3.74,20.81-7.95,30.85-2,4.7-2.54,9.81-4.52,14.53-2.07,4.92-5.07,11.87-11.56,11.09-.64-.08-.63.92,0,1,5.08.61,8.5-3.42,10.59-7.55a57.44,57.44,0,0,0,3.25-7.71c1-2.94,1.42-6,2.4-9,1.95-5.79,5.48-10.92,7.47-16.72,1.87-5.44,2.65-11.15,1.28-16.79-.15-.62-1.12-.36-1,.27Z"/><path d="M120.82,220.71c-11.17-2.44-18.17-11.89-23-21.61-.28-.58-1.15-.07-.86.5,4.89,9.95,12.14,19.58,23.55,22.07.63.14.9-.83.27-1Z"/><path d="M169.31,149.28c-2.4-3.85-6.06-7.11-9.09-10.46A28,28,0,0,0,150,131.33c-.58-.26-1.09.61-.5.86a29.58,29.58,0,0,1,5.44,2.82,30,30,0,0,1,4.58,4.5c3,3.28,6.6,6.5,8.94,10.26.34.55,1.2,0,.86-.5Z"/><path d="M168.17,147.24c4.16-2.48,5.82-7.49,5-12.14-1-5.73-5.32-10.25-9.59-13.84-9.83-8.29-22.25-13.94-35.26-13.92A43,43,0,0,0,110,111.39c-6,2.84-10.75,7.31-15.23,12.08C90,128.53,85.06,133.9,81.5,139.9c-3.82,6.43-4.75,14.05-5.75,21.34a216.6,216.6,0,0,0-.76,52,.5.5,0,0,0,.93.25c.77-1.05,1.7-3,2.74-3.75l2-.84.72.69a17.48,17.48,0,0,1,2.15,2.07.51.51,0,0,0,.71,0c.57-.65,1.23-1.9,2.13-1.83.57,0,2.15,2.22,2.57,2.66a.5.5,0,0,0,.49.13c1.35-.35,2-1.94,3.71-1.74.53.06,1.43,1,1.94,1.2a8.4,8.4,0,0,0,2.28.63c3,.46,6.68.37,9.41-1.06.57-.3.07-1.16-.5-.86-2.2,1.15-4.84,1.17-7.28,1.05a8.83,8.83,0,0,1-4.2-1.05,9,9,0,0,0-1.81-1.1,2.16,2.16,0,0,0-2.18.4c-.85.63-.48,1.39-1.8,1-.75-.21-2-2.08-2.57-2.66a.5.5,0,0,0-.71,0c-.25.28-1.23,1.82-1.65,1.87-.77.1-1.52-1-2-1.45s-1.32-1.49-2.22-1.45c-.74,0-1,.59-1.48,1.05a41,41,0,0,0-3.29,4.5l.93.25a216.79,216.79,0,0,1-.43-41.31,177.16,177.16,0,0,1,2.84-20.68c1.46-7.05,4.76-12.56,9.24-18.1,8-9.88,16.85-19.92,29.56-23.33,12.28-3.3,25.31-.69,36.22,5.53,5.87,3.35,12,7.72,15.92,13.33,3.73,5.35,4.8,13.88-1.67,17.72a.5.5,0,0,0,.5.86Z"/><path d="M150.17,128.52c-19.63,6.61-40.2,10.82-59.26,19-.59.25-.08,1.12.5.86,19-8.17,39.48-12.34,59-18.92.61-.2.35-1.17-.27-1Z"/><path d="M101.58,143c.86,5.13,1.83,10.32,2.28,15.51s-.62,10.22-1.48,15.33q-2.52,15-3.71,30.12c-.05.64.95.64,1,0q1.32-16.46,4.17-32.73a48.05,48.05,0,0,0,.93-13.61c-.53-5-1.4-9.94-2.23-14.88-.11-.63-1.07-.36-1,.27Z"/><path d="M115.67,254.19c-.48,3.49-5.43,6.64-8,8.73a92.39,92.39,0,0,1-9.52,6.67,29.21,29.21,0,0,1-4.92,2.8c-2.54.91-4.14-.17-5.73-2.08a25.33,25.33,0,0,1-4.82-9.84c-3.92-14.77-.78-31.74,5.47-45.4.27-.58-.6-1.09-.86-.5a77.94,77.94,0,0,0-6.89,26.17c-.65,8-.42,16.85,2.82,24.38,1.29,3,3.37,6.68,6.22,8.48s6.48-1.49,8.85-2.92a93.38,93.38,0,0,0,10.77-7.6c2.64-2.16,7.12-5,7.63-8.63.09-.63-.88-.9-1-.27Z"/><path d="M158.61,218.84c6.53,3.66,10.59,10.42,14.89,16.32l7.62,10.44c2.21,3,7,7.43,4.66,11.39-1.74,3-5.45,4.57-8.22,6.42A92.71,92.71,0,0,0,155,284.51c-.39.51.48,1,.86.5a92.68,92.68,0,0,1,18-17.81c3-2.28,6.4-4.1,9.45-6.35,2-1.46,4-3.4,4.18-6,.17-3.47-3.35-6.79-5.22-9.35l-8.2-11.24c-4.31-5.91-8.41-12.6-15-16.27a.5.5,0,0,0-.5.86Z"/><path d="M152.43,239.65c5.15,2.2,16.86,8.11,13.07,15.17a62.53,62.53,0,0,1-5.84,8.25,55.29,55.29,0,0,1-7.18,7.78c-.48.43.23,1.13.71.71a59.94,59.94,0,0,0,8.38-9.35c2-2.74,5.55-6.3,5.8-9.85.22-3.08-2.17-5.53-4.32-7.37a39,39,0,0,0-10.1-6.2c-.59-.25-1.1.61-.5.86Z"/><path d="M151.71,269,139.5,271.9a.49.49,0,0,0-.35.35c-.51,3.57,2.49,7.1,4.23,10,2.13,3.53,4.61,5.34,8.18,7.3,1.9,1,4.89,3.89,6.42,1.19a8.5,8.5,0,0,0-.65-8.78c-.36-.53-1.22,0-.86.5a7.78,7.78,0,0,1,1.26,6.12c-.66,2.87-2,2.1-4,1-3.26-1.79-6.44-3.28-8.61-6.44-1.13-1.65-6.31-8.81-4.41-10.5a12,12,0,0,1,2.82-.66l2.82-.66L152,270c.63-.15.36-1.11-.27-1Z"/><path d="M150.76,238.28c.21,8.87,3.93,17,6.25,25.43a.5.5,0,0,0,1-.27c-2.3-8.34-6-16.39-6.21-25.16a.5.5,0,0,0-1,0Z"/><path d="M161.23,276.92c5.23,12.65,14.94,22.49,22.81,33.47.37.52,1.24,0,.86-.5-7.81-10.9-17.51-20.68-22.71-33.23-.24-.59-1.21-.33-1,.27Z"/><path d="M86.65,211.73C79.87,225.78,76.49,241,72.52,256a283,283,0,0,1-16.73,46.13c-3.88,8.41-8.08,16.67-12.45,24.84a.51.51,0,0,0,.56.73c4.5-1,8.46-3.33,12.53-5.41Q63,319,69.76,316.16a195.81,195.81,0,0,1,26-8.75,198.57,198.57,0,0,1,55.54-6.34,194.82,194.82,0,0,1,31.88,3.55c.63.12.9-.84.27-1a198.81,198.81,0,0,0-109.9,9.92q-7,2.72-13.7,6c-5.29,2.55-10.41,5.94-16.19,7.25l.56.73a391.72,391.72,0,0,0,20.28-43.26c5.79-15,9.45-30.44,13.69-45.89a152.87,152.87,0,0,1,9.34-26.13c.28-.58-.58-1.08-.86-.5Z"/><path d="M138.25,300.58c3.3,10.14,1.73,21.12,1,31.54,0,.64,1,.64,1,0,.7-10.52,2.26-21.58-1.07-31.81-.2-.61-1.16-.35-1,.27Z"/><path d="M116.39,301.56a103.41,103.41,0,0,1,3.73,31.49c0,.54.66.62.93.25s.36-.57.16-1.13-1.18-.34-1,.27l-.06.36.93.25a104.31,104.31,0,0,0-3.76-31.76.5.5,0,0,0-1,.27Z"/><path d="M110.87,302.73c-.69,1.37,0,3.43.21,4.89l.79,6.72,1.69,14.41c.07.63,1.07.64,1,0l-1.52-13-.73-6.24c-.17-1.48-1.22-5-.57-6.3.29-.57-.57-1.08-.86-.5Z"/><path d="M89.94,307.43a110.08,110.08,0,0,0,2.57,24.84c.14.63,1.1.36,1-.27a108.89,108.89,0,0,1-2.54-24.58.5.5,0,0,0-1,0Z"/><path d="M116.47,225.89a39,39,0,0,1,10.41,13.26c.28.58,1.14.07.86-.5a39.65,39.65,0,0,0-10.56-13.46c-.49-.41-1.2.3-.71.71Z"/><path d="M159.47,279.22a25,25,0,0,0-5.86-8.86c-.46-.45-1.17.26-.71.71a23.79,23.79,0,0,1,5.6,8.42c.23.59,1.2.33,1-.27Z"/><path d="M159.8,161.31a10.52,10.52,0,0,0,5.79,4.2.5.5,0,0,0,.27-1,9.43,9.43,0,0,1-5.19-3.74c-.36-.53-1.23,0-.86.5Z"/><path d="M121.23,160.71a12.67,12.67,0,0,0,4.66,9.66c.49.41,1.21-.3.71-.71a11.7,11.7,0,0,1-4.37-9,.5.5,0,0,0-1,0Z"/><path d="M174.14,179.91l5.6,23.24.48-.63c-2.32-.13-3.32,1.55-4.54,3.24-.68.94-.79,1.44-2.12.84-.21-.09-.32-.46-.56-.55a2.64,2.64,0,0,0-1.87-.15,4.33,4.33,0,0,0-1.48,1.06c-.84.69-.64.46-1.69.64a10.75,10.75,0,0,0-6,3.4c-.42.49.29,1.2.71.71,1.25-1.46,4.42-3.67,6.5-2.95a.51.51,0,0,0,.56-.23c.7-1.06,1.42-1.57,3.29-.74.16.07.33.48.51.5a3,3,0,0,0,.86,0c2.77-.49,2.19-5,5.8-4.82a.5.5,0,0,0,.48-.63l-5.6-23.24c-.15-.63-1.12-.36-1,.27Z"/></g></g></g><g id="text_frames" data-name="text frames"><path class="cls-18" d="M438.89,335.5c.08.81.26.35.22-1.88l-.3-1.59Z"/><path class="cls-18" d="M439.45,320.47c-.15-2.63-.4-5.66-.68-4,.29,2.6.17,3.23.51,6,0,2.24-.1,3.9-.21,3.52.08.79-.07,3.47.12,4.68a84.11,84.11,0,0,0,0-10.44C439.32,319.48,439.4,320.28,439.45,320.47Z"/><path class="cls-18" d="M439.92,102.08l0,1.41C439.91,103.1,439.92,102.62,439.92,102.08Z"/><path class="cls-18" d="M403.77,1.91a9.48,9.48,0,0,0,1.51-.06A8.82,8.82,0,0,0,403.77,1.91Z"/><path class="cls-18" d="M380.66,1.58l1.36,0A12.89,12.89,0,0,0,380.66,1.58Z"/><path class="cls-18" d="M439.92,102.08l.09-3.61A27.89,27.89,0,0,0,439.92,102.08Z"/><path class="cls-18" d="M438.73,290.36c0,.76,0,1.39.08,2l0-1.84A.67.67,0,0,1,438.73,290.36Z"/><path class="cls-18" d="M440.17,161.73v1.1c0,.32.08.63.12.91Z"/><path class="cls-18" d="M440.21,207.51a4.32,4.32,0,0,0-.36-1.79A15.35,15.35,0,0,1,440,208S440.14,207.85,440.21,207.51Z"/><path class="cls-18" d="M439.76,280.1l0,1.29Z"/><path class="cls-18" d="M440.22,129a1.53,1.53,0,0,0,.09-.42S440.25,128.71,440.22,129Z"/><path class="cls-18" d="M386.44,334.3s0,0,0,0C386.71,334.32,386.79,334.3,386.44,334.3Z"/><path class="cls-18" d="M439.5,335.57h-.74c-.08,0-.16.1-.16.14Z"/><path class="cls-18" d="M338.38,1.25h.19C339.68,1.23,339.05,1.23,338.38,1.25Z"/><path class="cls-18" d="M1.44,54.76c.23-4.4.29,7.16.55.54C1.89,55.91,1.59,49.28,1.44,54.76Z"/><path class="cls-18" d="M438.76,289.17v-1.88C438.75,288.15,438.75,288.72,438.76,289.17Z"/><path class="cls-18" d="M2,55.3H2l0-.68Z"/><path class="cls-18" d="M241,1.41a9.2,9.2,0,0,0,1,.11A4.72,4.72,0,0,0,241,1.41Z"/><path class="cls-18" d="M313.54,1.77l-1.8,0Z"/><path class="cls-18" d="M203.28,1.77c-1,0-1.31-.05-2.64,0l.41,0A20.29,20.29,0,0,1,203.28,1.77Z"/><path class="cls-18" d="M164.06,1.77l.72.05H166Z"/><path class="cls-18" d="M267.24,334.42a17.32,17.32,0,0,1,1.81.23C268.44,334.47,274.21,334.41,267.24,334.42Z"/><path class="cls-18" d="M438.87,290.34a5.07,5.07,0,0,1-.11-1.17v1.3C438.81,290.59,438.85,290.61,438.87,290.34Z"/><path class="cls-18" d="M201.69,3.79l-6.23,0Z"/><path class="cls-18" d="M3.54,318.86l0,1.43C3.58,319.74,3.57,319.23,3.54,318.86Z"/><path class="cls-18" d="M177,3.79c-1.11-.09-2.29-.14-3.51-.18-.26,0-.55,0-.72.07Z"/><path class="cls-18" d="M269.06,334.65h0Z"/><path class="cls-18" d="M310.11,334c-5.94,0-2.79.33-4,.52-7.09.1-3.28-.25-5.69-.42-4.43.09-7.82.4-11.12.38-.25-.06-.89-.08-.14-.14-4.68.27-13.89,0-19.34.35a5,5,0,0,1-.71-.08c.88.17,1,.34.84.46a49.48,49.48,0,0,1-5.94,0,15.86,15.86,0,0,0,2.53-.15l-2.79.1c-2.51-.32,3.81-.11,3.81-.34-5.44.1-11.78.36-15.94.27-.87-.31,9.75-.1,4.18-.38l6.45.12c-4.93-.49,3.92,0-.61-.49-8.49-.09-9.49.16-18,.07-1.91.17.63.25-1.28.43-12,.31-9.47-.78-18.32-.37a46.88,46.88,0,0,1-9.48.39l2.15-.35c-8.22,0-4.69.5-13.29.27,1.53-.14,6.46-.12,5.21-.16-5.57-.28-3.94.2-8.23.2l-.89-.31-28.07.33c.54-.09,2.2-.19-.07-.28-12.22.15-26.08,0-37.87-.22l-4.5.27c-1,0-1.94-.12-.81-.17-4.59-.1-.24.17-2.45.27-2.61,0-3.45-.15-1.8-.23-8.11.23-23.09.49-31.63.2l1.67-.08c-6.65-.11-7.5.55-13.67.3l1.18,0c-14.43-.12-30.38.13-41.39-.27-2.09.38-14.28-.17-15.21.37-8.24-.27-5.88-.36-17.49-.54-1,0-1.78,0-2.56.07l-.58,0-.29,0-.08,0-.42.09c0-.07,0-.14-.05-.23l0-.15a1.64,1.64,0,0,1,0-.25c0-.58,0-1.22-.06-1.94l.28-.09-.29-5.2.34-2.77-.07-3.59a11.84,11.84,0,0,1-.21,2.83c-.06-2.81,0-6.23.07-9a47.68,47.68,0,0,1,.27-4.86L3.47,296c.11.29.15,2.52.22,4.28-.29-7.09.3-1.29,0-7.79-.06.87-.17-.47-.22-.62.17-3.24.17-10.61.1-16.07l.19,1c0-9.85-.09-20.77-.09-31.83-.09,4-.43,3.06-.46-.19l.3-1.3c-.18-2.09-.11,3.39-.34-.91,0-4.13.34-2.78.43-.41l-.1-5c.09-.29.14.88.25,1.19-.18-2.06.3-8.67,0-11.64l.09-.28L3.74,201.4c-.26-.18-.2-3.7-.41-6.38.08-6.62.28-14,.26-21.93-.13-5.6-.22-1.64-.37-4.16.23-.41.21-8.38.38-4.24,0-9.57,0-12.22-.24-24.33-.1,1.31-.14,2.79-.22,2a23.48,23.48,0,0,1,.21-4.68l0,.58c-.35-13.58.68-31.35.19-42.17l0,.61L3.35,85.5c0-5.16.18,3.1.32-.72-.39-12.1.06-19.12-.2-29.08.69-7.71,0-27.37.39-37.78l-.16.6a42.52,42.52,0,0,1,.13-5.24c-.13.28-.15,2.92-.23,1.25l0-11L17,3.59l14.65.12L60.9,4c8.55,0,4.85-.84,15.63-.45l-3.06.3c17.25-.36,35.27,0,52.16-.29a21.59,21.59,0,0,1-2.68.16c1.78.11,5.08.11,7.94.06,1.43,0,2.75-.06,3.72-.1a8.37,8.37,0,0,0,1.59-.13c2.63,0,.61.16,2.23.25,3.58.13,9-.28,10.88-.06a10.61,10.61,0,0,1-1.66.09c2.33-.11,10.86,0,8.63-.23,6.34.12,12.12-.11,17.18,0,3.3-.28,10.85.14,11.9-.26-.45.41,11.11.33,15.12.14-1.34.12,3.48.13,1.91.3,4.57,0,8.76-.08,8-.29,8.43.49,16.93-.4,21.68.23,13.58-.22,26.16-.37,38.38-.47-.44.41-13.51,0-13,.47,11.59-.17,18.28-.52,29.78-.42,3,.06-1.69.18-2.7.25,11.58-.17,22.39,0,32.7-.19,0,0-1.14.08-2.19.11,2,0,4.72.06,4.49-.13l-2,.05c-3.24-.27,8.07-.57,8.43-.71-3.45.53,10.18.13,4.7.81,1.34,0,3-.12,2.71-.25,2,0,2.61.11.6.25,7.27-.1,4.69-.3,11.28-.3,0,.09-1.35.13-2,.23,3.34-.18,6.69-.35,12.26-.28-.34.05.31.13-1.35.12,9.57,0,16.31-.47,26.8-.3-3.1.39,3.57.13,4.13.47l5.64-.1-2.26-.16c4.94,0,9.31-.24,13.56-.13l-3.67.14,9.26-.06L402.33,3c5-.18-.54-.43,6-.34-1.34,0,4.94,0,7.52.2h0c2.45-.11,5-.22,8.62-.14.95.11-.76.38-.15.45,1.21-.14,4.1-.16,7.07-.18L435.74,3l1.83-.06.69,0,.52-.05c-.85.07-.8.25-.62.29L439,3l.09.49-.05,1.19c0,.35,0,.59,0,.75,0,.32-.08.31-.15.13,0,6.89.43-2.19.25,6,0-.64-.05-.34-.09-1.67-.1,8.21.15,15.86,0,23.41-.34,2.23-.08-6.59-.37-4,.06,10.88.41,22.52.33,33.05l0-2c.48,1.46-.24,7.84,0,13.16,0-1.3-.27-1.71-.21-1.36-.08,7.21.12,14.74.27,25.66L439,96.4c-.11,4.25-.06,11.19-.12,15.78.12,1.36.1,4,.28,2.39-.71,14.15.38,27-.21,39.54,0-1.5-.11-3.58-.11-2.38l.11,10.69a26,26,0,0,0,.29-3.65c.12,1.35.22,4.37.22,7-.14-4.81-.34,0-.46,2.12.06-.35.14.36.2.19-.37,5.59.42.94.17,8.56l-.11-.4c.06,2.85.2,5.48.17,8.56-.24,1.28-.11-3-.31-3.23,0,4.32.46,8.53.22,12.44l-.14-6.31c-.29,4.26-.21,4.76-.26,7.92v-.31l-.13,7.32.08-1.86c.63,5.41.12,11,.53,18.31-.39-7.08-.23-1.17-.5-1.71-.08,1.86-.16,4.69-.24,3.88.22,3.44-.18,5.75.15,10.61-.09.22,0,3.69-.23,2.91.07,4.48.15-1.06.27-.68.3,6.9-.37,16.23,0,26.16.17,8.56.47,10.15.62,18.09-.14,2.68-.32-2.2-.32-2.2-.13,4.33-.11,7.58,0,11.66-.08-.83-.14,0-.24,1.27,0,3.27.32,2.19.19,6.5-.1-.74-.26-1.69-.36-3.27l.33,11.66c-.15,1.06-.23-2.41-.34-3.82.07,4.49.14,11.62.39,13l.09-2.88c0,1.63-.21.84-.25-.37a22.21,22.21,0,0,1,.17-5.76l.06,2.84c.52-2.92-.08-11.42-.05-17.14l.38,2.39-.31-5.87c.1-1.25.31-2.1.37.72.19-4.1-.13-3.63.07-7.16,0-.39.05-.21.07.15l-.11-4c.08.79.27-.67.21,1.8.22-7.19-.28-11.6,0-14.31l0,.6c-.13-10-.28-1-.6-8.45l.69-5-.28-1a11.76,11.76,0,0,1,.14-2.69c-.19-3.83-.12.65-.3-1.57.25-5-.12-13.67.32-14.78-.21-1.78-.16,4.74-.31-.55.48-1.51-.08-6.12.14-10.65.25,1.39.12,5.68.33,1.15-.42-2.73.09-8.82,0-12.64-.33-.18-.14-8.3-.25-14.71.11.41.18-12.06.3-18l.06.18c-.33-1.15-.27-7.3-.34-11.78.2.18.28,1,.37,3.41v-4.21c-.11-1-.16-2.31-.2-5l.25,1.06c0-5.6-.29-11.28-.13-18.49-.23-.41-.65,5.73-.8-1.89.13-.28.34-.56.39,1.43,0-.65-.1-2.33-.05-3.65l.21,3c.09-3.28-.18-1.72-.16-4.34.18.05.13-1.94.27-1.57,0,.67-.07,2.29,0,3.29,0-3,.14-6.54.27-7.72-.1.26-.24,0-.27-2.17,0-5.6.22-1.92.31-5.19-.12-1.36,0-4.93-.26-5a13.74,13.74,0,0,1,.2-2.58c-.12-2.9,0-13.54-.32-10.28l0,.74V104c-.27-9.5.15-19.74,0-29.17l.09,0c-.1-5.63-.06-12.53-.25-16.55,0-1.67.16-3.93.27-3.22-.07-4.3-.17-4.79,0-11a27.41,27.41,0,0,1,.11,4.43c.08-5.59.22-6.86,0-12.86.23,2,.29-4.21.22-6.87l-.16,3.92c0-3,0-5.6,0-8.26l.3,1.44c.14-4.44.08-8.53,0-12.4l-.14-5.63,0-2.71V1.79l-2.23,0-1.5,0q-1.49,0-3-.15c-3,.21,6.21.15,3.51.4-5.26,0-10.75-.48-12.4-.48-7.21-.17-6.73.44-14.27.33,1,.11,1.88.4-3.76.5-5.27,0-6.47-.45-3.15-.54a8.68,8.68,0,0,1,1.82.06c1.7,0,3.93-.09,1.85-.2l-.68.11c-2.61-.11-9.86-.1-8.16-.28-4,.1-1.7.18,1.25.23-6.76-.16-10.55,0-17.51-.11,1.11.06,2.12.19,1,.19-10.2-.13-4.49.2-11.4.25-3.93-.16,1.41-.39-5.55-.26-4.25-.11-.9-.29.79-.37-6.34.21-11.84-.14-15.46-.18l3.34-.09c-2,.05-3.63.05-5.3,0l1.91.22a28.64,28.64,0,0,1-3.58-.13c-2,.14,1.55.36-2.46.55-2.61-.11-8,.12-8.86-.17,8.22.1-.91-.29,6-.33-1.34,0-3,0-4.94,0-.29,0,.28-.06.81-.08-7.86-.26-3.61.32-11.77.32,1-.16-1.89-.31-3.22-.27,3.28,0,1.57.27-1.44.39-5.23-.13-5.68.09-8.42.08l3.12.06C315.6,2,313,2,309.35,2c-.31-.13,3.31-.09,2-.14-4,.28-9.14-.29-14.78-.1-2.61-.11-.25-.3-2.55-.38-6.32.21-6.85-.22-13.49,0,1.91.22,2.25.16-2.43.38L289,1.57l-7,.32c3.3,0,7-.14,8.93-.1-3.34.18-3,.12-1.42.3-4.51-.33-8.94.19-14.16,0l.16-.54c-7.84-.24-13.93.28-24.11.14l3.27.09c-1.37.21-6.28,0-9.58.12.31-.18-1.75-.25-3.16-.36.17.13-7.45,0-8.38.35L229,1.63c-8.22-.1-9.38.51-17.28.45,2.38-.2-1.21-.32,4.08-.46a42.1,42.1,0,0,0-5.05.09c-1.54-.11-7.31.24-9.74.07a30,30,0,0,1-4.44.25c-.32,0,0-.09,0-.09s-4.64.12-2,.32c-8.13-.56-22.71,0-29.79-.44L146.86,2c.34-.05,0-.09,1-.07-7.21-.17-4.43.52-12.64.33-4.19-.29,4.36-.16,1.74-.27-1.14-.59-9.9.08-15.42-.26l1.34,0c-4.22-.2-10.3.22-17.19.18,0,0,.34-.05,0-.09-4.72.3-13.64.4-20.27.49,2.06-.23,3-.12,1.75-.36-3,0,.87.38-5.06.44a68,68,0,0,1-6.78-.49H81c-2.87-.32-7.25,0-10.2,0l.38-.14c-8.58,0-8.7.4-17.92.38l1,.11c-5,.35-4.22-.2-9.25.06l-1.52-.36c-3.32.09-11.65.35-17.61.41,3.38-.27,10.36-.4,14.67-.56-3.3,0-11.2,0-12.92.2,1.33,0,3-.12,4.31-.07-4,.28-9.36.42-15.93.42.38-.23-1.32-.33-3.94-.37L1.77,1.77l0,3.3,0,2.35c0,1.46-.1,2.69-.2,3.52.26,11.62-.11,23-.07,36.58.54-4.8,0,4,.57,3.12C2,53.8,2,55,2,55.28l-.33,9.55c-.16,2.26-.12-3-.25-2.71,0,6.9-.24,2.9-.38,7.46.2-.94.29,2.4.21,6.34l.26-5.54C1.79,80,1,78.73,1.32,88.45l-.18-3.08c.1,5,0,18.41.44,23.3-.06.88-.22,2-.26-.15-.07,11.92.48,26.54.2,35.81l-.14-.9c0,2.22.26,3.87.12,6.66-.06-.14-.14-.9-.14.13s.24,5.91.16,8.86l-.15-2.52c-.18,11.63.37,17.85.47,27.6-.4,0-.53,9.13-.6,13.7l-.06-.16c0,13.54.33,23,.49,35.55-.43,7.79-.18,26.37-.43,38.89.07-1.91.31.31.35,2.54-.08,2.94.28,8.12-.09,7.65v-1c-.36,2.21-.26,8.25-.27,13l.48.78C1,307.35,2,327.3,1.36,334l0,2.54,5.21-.09c1.4,0,2.78-.05,4-.11l-.16.26c8.24.07,12.36.1,22.54,0l-2.08.18c5.75,0,7.25-.74,12.55-.76l1.59.38c10,0,20.17.33,30.07,0a6.34,6.34,0,0,1-2.08.18c4.72,0,18.25.26,16.54-.27.12.34,10.34,0,15.76-.12l-.84.25c4.57-.32,4.72-.41,11.1-.5,1.51,0,1.32.2-.68.14,5,.13,3.93-.24,10-.11l-2.28.16a64.27,64.27,0,0,0,7.63-.26,90.88,90.88,0,0,1,10.6.29,45.15,45.15,0,0,1,6.59-.26c.41.09-.7.14-1.26.17,8.67.17,12.89-.29,18.85,0a2.87,2.87,0,0,0,1,.15c-6.89,0-12.43,0-11.91,0,0,.23,5.56.27,1.14.6,4.47-.18,12.1-.56,17.52-.45.26,0,.52,0,.72.08l-.56,0c1.25,0,2.37,0,3.43,0,1.73,0,2.83.07,4.49.07.64.19,6.38.1,9.15.11-.23-.26,3.4-.21,0-.43a18.72,18.72,0,0,1-2.37,0l-1.18,0,.19,0-6.89,0a66.61,66.61,0,0,1,7.55-.1c1.42-.16,3-.33,3.87-.41,3.8.36,11.11.55,12.13.77,8.47-.14,20-.09,25.28-.58a18.2,18.2,0,0,1,3.67.21c-1.39,0-3,0-3.8.11,4.81-.12,14.26,0,15.41-.38,6.07.15-3.41.31,4.93.25l-1.13.1c16.4.54,26.67-.86,44.85-.17a19.64,19.64,0,0,1-2.15-.12c20.73.3,42.73-.29,63.19.2,5.82.1,6.45-.12,10-.28l1.26.27,6.07-.32c8.6-.23,14.9.67,25.8.24l-1.41-.19c3.91,0,12.39-.11,11.74.1a14.27,14.27,0,0,1,2.81-.1l.12.14,9.61-.25c7.45.1-1.17.57,9.71.6,4-.06,11.51-.42,10-.51a26.24,26.24,0,0,1-4.29-.23l3.7-.07c.67-.42,3.51-.86-5.56-1.15l-6.32.26-2-.21h5.32a51.39,51.39,0,0,0-7.08.1,17.12,17.12,0,0,0-2.65-.23l-6.21.4c-.75-.17,2.78-.33-1.38-.42-2.91.19,2.79.37-2,.5a28.85,28.85,0,0,0-5.69-.18c-.5-.11.25-.18,1.66-.23-3.16.13-8.36.06-10,.28-3.15-.24-10.67.06-10.36-.34-1,.1-5.57.31-8.47.33,5.3-.48-10.87,0-9.46-.54-3.92.43-14.18.19-21.13.43a15.52,15.52,0,0,1,1.77-.08c-3.91,0-5.05-.17-7.56-.25-.5.36-6.6.44-9.88.66-4.8-.34,2.91-.42,1.41-.75.24.29-8.33.29-6.7.53a35.81,35.81,0,0,1-5.05-.4c-.64.45-3.42.08-6.46.35-5.31-.22-1.37-.42-7.2-.28C304.92,334.2,310.11,334,310.11,334Zm-138.68.77h2.86Zm-11.66,0h5.06c.41.09,0,.18-1.21.17C164.26,334.95,161.51,334.9,159.77,334.82Zm24.65,1.77a15.6,15.6,0,0,1-2.72-.07l3.23,0,.22,0A3.91,3.91,0,0,1,184.42,336.6Z"/><path class="cls-18" d="M187.74,336.26l.76,0-1.1-.06-.65.08Z"/><path class="cls-18" d="M439.88,103.73v-.25c0,.2,0,.39,0,.52Z"/><polygon class="cls-18" points="3.67 331.84 3.6 331.86 3.66 332.88 3.67 331.84"/><path class="cls-18" d="M439,167.92a7,7,0,0,0-.07.84S439,168.36,439,167.92Z"/><path class="cls-18" d="M438.94,195.65l-.09,3.92Z"/><path class="cls-18" d="M438.82,217a1.47,1.47,0,0,0,.11.42v0Z"/><path class="cls-18" d="M315,3.48h-.82C312.26,3.54,313.57,3.52,315,3.48Z"/><path class="cls-18" d="M415.88,2.88,412.64,3A12.87,12.87,0,0,0,415.88,2.88Z"/><path class="cls-18" d="M202.37,3.79h0Z"/><path class="cls-18" d="M407.94,3c1.8.05,3.3,0,4.69,0C411.16,3,409.43,3,407.94,3Z"/><path class="cls-18" d="M438.7,309.36v1s0,0,0,.12Z"/><path class="cls-18" d="M438.73,310.51l0,1.14A10.84,10.84,0,0,0,438.73,310.51Z"/><path class="cls-18" d="M438.83,314.05l-.06-2.4A23.44,23.44,0,0,0,438.83,314.05Z"/><path class="cls-18" d="M438.82,281.14l-.09-.32A.56.56,0,0,0,438.82,281.14Z"/><path class="cls-18" d="M438.79,272.57c0,2-.2,5.13-.14,8l.07.27C438.59,279.48,438.95,274.51,438.79,272.57Z"/><path class="cls-18" d="M439.94,236.77l-.07,7.19c.1-1.26.23-2.91.26.36C440.42,235.26,439.9,246.19,439.94,236.77Z"/><path class="cls-18" d="M440.08,214.49c0,3.86.14,0,.2.16C440.19,212.2,440.17,211.6,440.08,214.49Z"/><path class="cls-18" d="M440.08,53.46l.23.39C440.28,50.87,440.23,53.82,440.08,53.46Z"/><polygon class="cls-18" points="438.88 22.67 438.74 25.57 438.95 26.95 438.88 22.67"/><polygon class="cls-18" points="440.54 4.49 440.57 5.79 440.52 1.48 437.82 1.51 440.51 1.49 440.54 4.49"/><path class="cls-18" d="M171,1.54l.9.29C173.95,1.78,174.37,1.46,171,1.54Z"/><path class="cls-18" d="M54.28,1.84a48.62,48.62,0,0,0-6.58-.09C50.33,1.76,52.94,1.87,54.28,1.84Z"/><polygon class="cls-18" points="1.37 300.88 1.27 298.53 1.35 302.95 1.37 300.88"/><path class="cls-18" d="M439.5,80.17c.23-.09.1-.28-.53-.24l-.45.33Z"/><path class="cls-18" d="M435.24,79.55c-.75.16-1.61.44-1.12.75.74-.32.92-.19,1.71-.56.63,0,1.11.11,1,.23.22-.08,1,.07,1.33-.14a6.25,6.25,0,0,0-3-.05C435,79.7,435.18,79.61,435.24,79.55Z"/><path class="cls-18" d="M373.26,79l.4,0A2.62,2.62,0,0,0,373.26,79Z"/><path class="cls-18" d="M334.87,78.85c.29,0,.41,0,.43-.07C335,78.81,334.8,78.83,334.87,78.85Z"/><path class="cls-18" d="M328.31,78.49l.39,0A1,1,0,0,0,328.31,78.49Z"/><path class="cls-18" d="M373.26,79l-1-.1C372.17,79,372.76,79,373.26,79Z"/><path class="cls-18" d="M426.69,80.35a3.3,3.3,0,0,0,.56-.09l-.52,0Z"/><path class="cls-18" d="M390.19,78.77h.31a1.67,1.67,0,0,0,.26-.13Z"/><path class="cls-18" d="M403.18,78.72c-.29,0-.4.27-.51.39a1.3,1.3,0,0,1,.64-.19C403.32,78.86,403.28,78.8,403.18,78.72Z"/><path class="cls-18" d="M423.78,79.21l.37,0Z"/><path class="cls-18" d="M380.89,78.71a.25.25,0,0,0-.12-.1S380.82,78.68,380.89,78.71Z"/><path class="cls-18" d="M17.56,80.82s0,0,0-.05S17.46,80.82,17.56,80.82Z"/><path class="cls-18" d="M2.5,79.43l.21,0a.43.43,0,0,0,0-.16Z"/><path class="cls-18" d="M316.31,78.13h.05C316.68,78.1,316.5,78.11,316.31,78.13Z"/><path class="cls-18" d="M206.17,78.34c1.25.25-2,.32-.15.6C205.84,78.83,207.73,78.5,206.17,78.34Z"/><path class="cls-18" d="M426.35,80.31h-.53A4.36,4.36,0,0,0,426.35,80.31Z"/><path class="cls-18" d="M206,78.94h0l.19,0Z"/><path class="cls-18" d="M288.67,78.3a.87.87,0,0,0,.28.12S288.88,78.36,288.67,78.3Z"/><path class="cls-18" d="M309.26,78.7l-.51,0A4.79,4.79,0,0,0,309.26,78.7Z"/><path class="cls-18" d="M278,78.7a3,3,0,0,0-.75,0l.12,0A1.51,1.51,0,0,1,278,78.7Z"/><path class="cls-18" d="M266.85,78.7l.21.06.35,0Z"/><path class="cls-18" d="M51.38,80.68a1.75,1.75,0,0,1-.51-.25C51,80.63,49.4,80.7,51.38,80.68Z"/><path class="cls-18" d="M426.68,80.19a.47.47,0,0,1-.33.12l.37,0S426.76,80.22,426.68,80.19Z"/><path class="cls-18" d="M277.52,80.91l-1.77,0C276.25,80.9,276.89,80.91,277.52,80.91Z"/><path class="cls-18" d="M131.23,80.64l-.41,0A1.3,1.3,0,0,0,131.23,80.64Z"/><path class="cls-18" d="M270.51,80.91a5.2,5.2,0,0,0-1-.19.88.88,0,0,0-.21.07Z"/><path class="cls-18" d="M50.86,80.43h0Z"/><path class="cls-18" d="M39.22,81.1c1.69,0,.79-.36,1.15-.57,2-.11.93.27,1.62.46,1.26-.1,2.22-.44,3.16-.42.07.06.25.08,0,.16,1.33-.29,3.94,0,5.49-.38a.49.49,0,0,1,.2.09c-.25-.19-.29-.37-.24-.51.76,0,1.4-.23,1.69,0a1.29,1.29,0,0,0-.72.17l.79-.1c.71.35-1.08.12-1.08.38a36.67,36.67,0,0,1,4.52-.3c.25.34-2.77.11-1.19.42l-1.83-.13c1.4.54-1.11,0,.17.54,2.41.1,2.69-.17,5.1-.07.54-.19-.18-.28.36-.47,3.41-.34,2.69.85,5.2.4a3.75,3.75,0,0,1,2.69-.43l-.61.38c2.33,0,1.33-.55,3.77-.29-.43.15-1.83.13-1.48.17,1.58.3,1.12-.22,2.33-.22l.25.34c2.48-.05,5.22-.3,8-.36-.15.1-.62.21,0,.31a103,103,0,0,1,10.75.24l1.28-.29c.3,0,.55.13.23.19,1.3.11.07-.19.69-.3s1,.17.51.26a47.56,47.56,0,0,1,9-.22l-.47.09c1.89.12,2.13-.6,3.88-.33l-.34.05c4.1.13,8.62-.14,11.75.3.59-.42,4.05.19,4.32-.4a39.15,39.15,0,0,0,5,.59c.88,0,1.31-.37,2.4-.43l0,.31,1.48-.32.79.37,1-.08c-.41,0-.86-.14-.8-.23a10.81,10.81,0,0,1,3.92.37l3.77-.26c-.08.12-.71.17-1.21.25,2-.31.37.32,2.21,0-.25-.07.13-.18.18-.25a24.56,24.56,0,0,0,4.56.11l-.3.21c2.8.05,5.89-.1,9-.1-1.13-.1-.87-.47.05-.5l.37.33c.59-.2-1-.12.26-.37,1.17,0,.79.37.12.48l1.43-.11c.08.1-.25.15-.34.27.58-.2,2.46.33,3.3,0l.08.1c3.14,0,4.56-.11,7.11-.13,0-.28,1-.22,1.81-.45,1.88.09,4,.31,6.22.29,1.59-.14.46-.24,1.18-.41.12.26,2.38.23,1.2.42,2.72,0,3.47-.05,6.9-.26-.37-.1-.79-.15-.57-.24.62,0,1.42.11,1.33.23l-.16,0c3.85-.38,8.9.75,12,.21l-.17,0,3.18-.28c1.46,0-.88.19.21.35,3.43-.43,5.43.06,8.25-.22,2.19.76,7.77-.05,10.72.43l-.17-.18c.76-.17.92.1,1.49.14-.08-.14-.83-.16-.35-.26,6.47-.21,13.35.26,20,.42,2.43,0,1.38-.92,4.43-.5l-.87.33c4.89-.4,10,0,14.8-.32a1.73,1.73,0,0,1-.76.17,9.49,9.49,0,0,0,3.76-.18c.75,0,.17.18.63.28,1,.14,2.55-.31,3.09-.07.09,0-.29.08-.47.1.66-.12,3.08,0,2.45-.25,1.8.13,3.44-.12,4.87,0,.94-.31,3.08.15,3.38-.29-.13.45,3.15.36,4.29.15-.38.14,1,.14.54.33,1.3,0,2.49-.09,2.26-.32,2.39.54,4.81-.44,6.15.26,3.85-.24,7.42-.41,10.89-.51-.13.45-3.83,0-3.68.52a81.59,81.59,0,0,1,8.45-.46c.84.06-.48.2-.76.27,3.29-.19,6.35,0,9.28-.2a1.89,1.89,0,0,1-.62.12c.58,0,1.34.07,1.28-.14l-.56.06c-.92-.3,2.29-.62,2.39-.78-1,.59,2.89.15,1.33.89.38,0,.86-.14.77-.27.56,0,.74.12.17.28,2.06-.11,1.33-.33,3.2-.32,0,.1-.38.14-.58.25a12.13,12.13,0,0,1,3.48-.3c-.1.06.09.14-.38.14,2.71,0,4.63-.52,7.6-.33-.88.43,1,.14,1.17.52l1.6-.11-.64-.18c1.4,0,2.64-.27,3.85-.14l-1,.15,2.63-.07-1.49-.14c1.42-.19-.15-.47,1.71-.37a20.15,20.15,0,0,1,2.13.22h0a8.57,8.57,0,0,1,2.45-.15c.27.12-.22.41,0,.49.68-.31,3.28-.09,4.15-.42-.29.08-.3.27-.21.31l.57-.25c.65.08.74.12.64.28,2,0-.62-.47,1.7-.27a3.22,3.22,0,0,1-.47.1c2.33.11,4.5-.16,6.64,0,.63.38-1.87.09-1.15.41,3.09-.07,6.39-.45,9.38-.36l-.56,0c.41-.53,2.22.26,3.74,0-.37,0-.48.29-.39.24,2,.09,4.18-.13,7.28-.3l-.38.14c1.21.12,3.17.07,4.48.13.39-.14,1.13-.11.68-.31,4,.78,7.66-.42,11.22.23-.43,0-1,.12-.68.12l3-.13c-.24-.23-.4-.14-1-.32a7.35,7.35,0,0,1,2-.24c-1.36.15,0,.37.6.5-.1-.07.1-.15.05-.22,1.59.41.27-.46,2.43-.19l-.11.12a19.55,19.55,0,0,1,2.43-.19c.36.27-.86.12-.92.34,1.23,0,2.42-.51,3.53-.24-.52.07-1.27.08-1.79.15a7.62,7.62,0,0,0,2.25.28h-.09l2.08.14-.53-.09c1.54-.7,3.13-.13,5.19-.58-2,.43-.33.25-.49.55.53.08,1.33.18,1.1.26,1-.24,1.63.19,3-.16.06.1,1,0,.83.25,1.27-.08-.3-.17-.19-.29,2-.33,4.6.4,7.42-.05,2.43-.19,2.88-.52,5.13-.68.76.16-.62.36-.62.36a14.33,14.33,0,0,0,3.31,0c-.23.09,0,.16.36.27.93,0,.62-.36,1.85-.21a3.58,3.58,0,0,1-.93.39c1.09-.09,2.17-.27,3.31-.36.3.17-.68.26-1.08.37a15.4,15.4,0,0,0,3.69-.42l-.82-.1c.46,0,.24.23-.1.28-1.09.21-1.57-.09-1.64-.19l.81-.06c-.83-.57-3.24.09-4.86.06l.68-.42-1.67.35c-.35-.11-.6-.34.21-.4-1.16-.21-1,.15-2-.08-.11,0-.06-.06,0-.07l-1.14.12c.22-.09-.19-.29.51-.23-2-.24-3.29.31-4.06,0l.17,0c-2.83.14-.27.31-2.4.66L415.43,79l-.28.31c-.29,0-.87,0-.76-.16-1.09.21.19.13-.45.33-1.41-.28-3.88.13-4.2-.36-.5.23,1.35.18-.16.34-.43-.52-1.74.09-3-.15.39-.27,1.61-.13.33-.37-.78.46-2.5-.1-3.59,0-.05.36-2.36.15-4.18.27.12-.12-3.42-.2-5.11-.33l0-.06c-.33.37-2.07.3-3.34.37,0-.22.28-.31,1-.4H390.5a4.39,4.39,0,0,1-1.43.22l.3-.27a43.5,43.5,0,0,1-5.25.14c-.12.26,1.63.71-.54.88-.08-.14-.16-.38.41-.43a4,4,0,0,1-1,.06l.86-.23c-.93-.1-.49.19-1.23.17,0-.2-.55-.14-.44-.3a5,5,0,0,0,.93,0,8.75,8.75,0,0,1-2.19-.3c.07.11,0,.27-.62.29-1.59,0-.54-.24-1.47-.34-.39.14-1.4,0-1.43.29a1.19,1.19,0,0,1-.73-.22c-.82.13-3.84,0-2.92.35l.21,0h-.13c-2.7.29-5.6-.17-8.28,0V79c-1.6.11-3.56.07-4.7.28-.47,0-1.12-.18-.91-.3a13.3,13.3,0,0,1-3.12,0c1.23-.17-.42-.15,1.26-.13a12.59,12.59,0,0,0-3.65,0c.58-.25-1.19-.32-1.95-.24l1.11.18c-.85,0-1.59,0-2.34,0l.41-.33c-3.25-.4-5.86.69-8.33,0-.86.23,1.76.16,1,.44-1.49,0-3-.52-3.52-.52-2-.18-1.91.49-4,.36.27.12.53.44-1.07.55-1.49,0-1.84-.5-.89-.59.36,0,.53,0,.52.07.48,0,1.12-.09.52-.22l-.19.12c-.74-.12-2.8-.11-2.31-.3-1.13.11-.48.19.35.26-1.92-.17-3,0-5-.12.31.07.6.2.29.2-2.89-.15-1.27.23-3.24.28-1.11-.18.4-.43-1.57-.28-1.21-.12-.26-.31.22-.41a20.83,20.83,0,0,1-4.39-.19L321,78a14,14,0,0,1-1.5.05l.54.24c-.56,0-1,0-1-.14-.57.16.44.39-.7.61-.74-.12-2.26.13-2.51-.19,2.33.11-.26-.32,1.72-.37a8.29,8.29,0,0,1-1.4,0c-.08,0,.08-.07.23-.08-2.23-.28-1,.36-3.34.35.29-.18-.54-.34-.91-.3.93,0,.45.3-.41.43a12.3,12.3,0,0,0-2.39.09l.89.06a7,7,0,0,1-2.08.21c-.09-.14.94-.1.57-.16-1.15.31-2.59-.32-4.19-.11-.74-.12-.07-.33-.72-.42-1.79.23-1.94-.24-3.83-.05.54.24.64.18-.69.41l3.1-.17-2,.35c.94,0,2-.15,2.53-.11-.95.19-.85.14-.4.33-1.28-.36-2.54.21-4,0l0-.59c-2.22-.26-4,.3-6.84.15l.93.1a14.67,14.67,0,0,1-2.72.13c.09-.2-.5-.27-.9-.39,0,.15-2.11,0-2.38.38l-1.29-.26c-2.33-.11-2.66.56-4.9.5.68-.21-.34-.35,1.16-.51-.75,0-1.42,0-1.43.1-.44-.12-2.08.27-2.76.08a2.43,2.43,0,0,1-1.26.28c-.09,0,0-.1,0-.1s-1.32.13-.58.35c-2.31-.62-6.44,0-8.45-.48-1.63.07-3.6.13-5.09.14.1-.06,0-.1.29-.08-2-.18-1.26.57-3.59.36-1.19-.32,1.24-.17.49-.29-.32-.65-2.81.09-4.38-.29l.38,0c-1.2-.22-2.92.25-4.88.2,0,0,.1-.06,0-.1a38.45,38.45,0,0,1-5.75.53c.59-.25.86-.13.5-.39-.84,0,.25.41-1.44.49-.55-.14-1.76-.26-1.92-.54h1.59c-.81-.36-2.06,0-2.89,0l.11-.16c-2.43.05-2.47.44-5.09.42l.27.12c-1.43.39-1.2-.22-2.63.07l-.43-.39c-.94.1-3.3.38-5,.46a37.66,37.66,0,0,1,4.16-.62,19.9,19.9,0,0,0-3.67.22,5.11,5.11,0,0,1,1.22-.07,17.61,17.61,0,0,1-4.52.46c.33-.77-4.86-.19-6.21-.79-3.3.28-6.54-.12-10.38-.08,1.36.6-1.12,0-.89.63a5.31,5.31,0,0,1-1.32,0l-2.71-.37c-.64-.18.85-.13.77-.27-2,0-.82-.26-2.12-.42.27.22-.68.31-1.8.23l1.57.28c-2.74.33-2.37-.51-5.13-.19l.87-.19c-1.42.11-5.22,0-6.61.49-.25-.07-.58-.24,0-.28-3.38-.07-7.53.52-10.16.22l.26-.15a5.87,5.87,0,0,1-1.89.13c0-.06.25-.15,0-.16a12,12,0,0,1-2.51.17l.71-.17c-3.3-.2-5.07.41-7.83.51,0-.44-2.59-.58-3.89-.65l0-.06c-3.84-.05-6.53.36-10.09.54-2.21-.48-7.48-.2-11-.47.54.08-.09.34-.72.39-.83-.09-2.3.31-2.17-.1h.3c-.63-.4-2.34-.29-3.68-.3l-.22.53c-3.5-.77-9.16.28-11.07-.41-.84.13-1.89.13-2.73.26l0-.28c-2.34-.07-3.51-.11-6.4,0l.59-.2c-1.63,0-2.06.82-3.56.83l-.45-.42c-2.84,0-5.72-.36-8.53,0,0-.06.13-.18.59-.2-1.34,0-5.18-.29-4.69.29,0-.38-2.93,0-4.47.13l.24-.28a9.9,9.9,0,0,1-3.15.55c-.43,0-.38-.22.19-.15-1.43-.15-1.11.26-2.85.12l.65-.18a4.91,4.91,0,0,0-2.16.28,6.87,6.87,0,0,1-3-.32,3.52,3.52,0,0,1-1.87.29c-.12-.1.2-.15.36-.18-2.46-.19-3.66.32-5.35.05,0-.09-.15-.14-.29-.17,2,0,3.53,0,3.38,0,0-.26-1.58-.3-.32-.66a24.53,24.53,0,0,1-5,.49.79.79,0,0,1-.2-.09l.16,0a4.45,4.45,0,0,0-1,0c-.49,0-.8-.07-1.27-.08a9.52,9.52,0,0,0-2.6-.12c.07.28-1,.24,0,.47-.13,0,.15,0,.67,0l.34,0-.05,0,2,0a5,5,0,0,1-2.14.11c-.4.18-.85.37-1.1.45-1.08-.39-3.15-.6-3.44-.85-2.4.16-5.66.1-7.17.63a1.51,1.51,0,0,1-1-.23,9,9,0,0,0,1.08-.12c-1.37.14-4,.05-4.37.42-1.72-.17,1-.34-1.4-.28l.32-.11c-4.65-.59-7.57.94-12.73.18a1.57,1.57,0,0,1,.61.13c-5.88-.33-12.12.31-17.93-.22a7.54,7.54,0,0,0-2.84.31l-.36-.3-1.72.35c-2.44.26-4.23-.74-7.32-.26l.4.2c-1.11,0-3.52.12-3.33-.11a1.12,1.12,0,0,1-.8.11l0-.16-2.73.27c-2.11-.11.33-.63-2.75-.66-1.15.06-3.27.46-2.84.57s1.18.1,1.22.26l-1,.08c-.19.47-1,.94,1.58,1.27l1.79-.28.58.23H5.15a3.85,3.85,0,0,0,2-.1,1.5,1.5,0,0,0,.75.25l1.76-.44c.21.18-.79.36.39.46.83-.21-.79-.41.57-.54.86.21.61.38,1.62.2.14.12-.07.2-.47.25a17.9,17.9,0,0,0,2.84-.31c.89.26,3-.07,2.94.37a11.49,11.49,0,0,1,2.4-.36c-1.5.53,3.08,0,2.69.6,1.11-.47,4-.21,6-.47a1.2,1.2,0,0,1-.5.09,15.39,15.39,0,0,1,2.15.27c.14-.39,1.87-.48,2.8-.72,1.36.38-.83.46-.4.82-.07-.32,2.36-.32,1.9-.58,1,.23.9.11,1.43.44.18-.49,1-.08,1.83-.38,1.51.24.39.46,2,.31C40.69,80.92,39.22,81.1,39.22,81.1Zm39.35-.85h0l-.81,0Zm3.31,0H80.44c-.12-.1,0-.2.34-.19C80.61,80.11,81.38,80.16,81.88,80.24Zm-7-1.95c.52,0,.7,0,.77.07l-.92,0-.06,0A.5.5,0,0,1,74.88,78.3Z"/><path class="cls-18" d="M73.94,78.67l-.22,0,.31.06.19-.09Z"/><path class="cls-18" d="M373.73,79.08h-.07l.15,0Z"/><polygon class="cls-18" points="127.54 80.78 127.54 80.71 127.25 80.77 127.54 80.78"/><path class="cls-18" d="M391.95,80a.6.6,0,0,0,.24.07A.78.78,0,0,0,391.95,80Z"/><path class="cls-18" d="M399.81,80.11l1.11.1C400.45,80.15,400.1,80.13,399.81,80.11Z"/><path class="cls-18" d="M405.86,80.25a.31.31,0,0,0,.12-.12h0Z"/><path class="cls-18" d="M309.68,80.58h-.23C308.9,80.65,309.27,80.63,309.68,80.58Z"/><path class="cls-18" d="M338.3,79.92c-.3.05-.6.1-.92.13C337.89,80.08,338.29,80.08,338.3,79.92Z"/><path class="cls-18" d="M277.72,80.92h0Z"/><path class="cls-18" d="M336.05,80.05a6.22,6.22,0,0,0,1.33,0A9.61,9.61,0,0,0,336.05,80.05Z"/><path class="cls-18" d="M432.08,80.38h.29s0,0,0,0Z"/><path class="cls-18" d="M432.41,80.34l.32,0A.82.82,0,0,0,432.41,80.34Z"/><path class="cls-18" d="M433.41,80.24l-.68.07A1.76,1.76,0,0,0,433.41,80.24Z"/><path class="cls-18" d="M424.08,80.25l-.09.1A.14.14,0,0,0,424.08,80.25Z"/><path class="cls-18" d="M421.64,80.28a16.72,16.72,0,0,0,2.27.15l.08-.08C423.6,80.5,422.19,80.1,421.64,80.28Z"/><path class="cls-18" d="M411.48,79l2,.08c-.36-.11-.83-.25.1-.28C411.05,78.49,414.16,79.06,411.48,79Z"/><path class="cls-18" d="M405.16,78.86c1.1-.05,0-.16,0-.22C404.51,78.74,404.34,78.76,405.16,78.86Z"/><path class="cls-18" d="M359.47,78.86l.11-.26C358.73,78.64,359.57,78.7,359.47,78.86Z"/><polygon class="cls-18" points="350.73 80.18 351.55 80.34 351.94 80.1 350.73 80.18"/><polygon class="cls-18" points="345.57 78.36 345.94 78.32 344.53 78.41 345.57 78.36"/><path class="cls-18" d="M268.82,78.45l.26.31C269.65,78.71,269.77,78.35,268.82,78.45Z"/><path class="cls-18" d="M235.69,78.77a3.64,3.64,0,0,0-1.87-.1C234.57,78.69,235.31,78.81,235.69,78.77Z"/><polygon class="cls-18" points="136.33 78.26 137 78.15 135.74 78.24 136.33 78.26"/><text class="cls-19" transform="translate(17.14 27.45)"><tspan class="cls-20">1</tspan><tspan class="cls-21" x="5.06" y="0">0</tspan><tspan class="cls-22" x="20.62" y="0">0</tspan><tspan x="36.28" y="0">% </tspan><tspan class="cls-23" x="53.74" y="0">o</tspan><tspan x="68.47" y="0">f </tspan><tspan class="cls-24" x="83.77" y="0">d</tspan><tspan class="cls-25" x="94.79" y="0">r</tspan><tspan class="cls-26" x="106.18" y="0">u</tspan><tspan class="cls-27" x="118.91" y="0">g</tspan><tspan x="132.54" y="0">s </tspan><tspan class="cls-28" x="149.24" y="0">t</tspan><tspan class="cls-29" x="162.04" y="0">r</tspan><tspan class="cls-30" x="173.18" y="0">a</tspan><tspan class="cls-31" x="184.32" y="0">n</tspan><tspan class="cls-32" x="196.47" y="0">s</tspan><tspan class="cls-28" x="208.08" y="0">f</tspan><tspan class="cls-33" x="217.88" y="0">e</tspan><tspan x="229.71" y="0">r </tspan><tspan class="cls-34" x="246.18" y="0">t</tspan><tspan x="257.5" y="0">o </tspan><tspan class="cls-35" x="277.3" y="0">b</tspan><tspan class="cls-36" x="289.13" y="0">r</tspan><tspan class="cls-37" x="300.6" y="0">e</tspan><tspan class="cls-38" x="312.75" y="0">a</tspan><tspan class="cls-39" x="323.55" y="0">s</tspan><tspan class="cls-40" x="334.7" y="0">t</tspan><tspan class="cls-41" x="346.85" y="0">m</tspan><tspan class="cls-42" x="359.15" y="0">i</tspan><tspan class="cls-43" x="370.69" y="0">l</tspan><tspan class="cls-44" x="381.95" y="0">k</tspan><tspan x="395.05" y="0">. </tspan><tspan class="cls-45" x="0" y="21.6">b</tspan><tspan class="cls-42" x="12.05" y="21.6">u</tspan><tspan x="24.81" y="21.6">t 9</tspan><tspan class="cls-46" x="53.86" y="21.6">9</tspan><tspan x="64.51" y="21.6">% </tspan><tspan class="cls-23" x="81.97" y="21.6">o</tspan><tspan x="96.7" y="21.6">f </tspan><tspan class="cls-47" x="112" y="21.6">t</tspan><tspan class="cls-48" x="124.58" y="21.6">h</tspan><tspan class="cls-43" x="135.05" y="21.6">e</tspan><tspan x="147.23" y="21.6">m </tspan><tspan class="cls-49" x="164.67" y="21.6">a</tspan><tspan x="174.13" y="21.6">t </tspan><tspan class="cls-50" x="192.42" y="21.6">v</tspan><tspan class="cls-51" x="203.57" y="21.6">e</tspan><tspan class="cls-52" x="215.4" y="21.6">r</tspan><tspan x="226.56" y="21.6">y </tspan><tspan class="cls-53" x="244.02" y="21.6">l</tspan><tspan class="cls-54" x="255.2" y="21.6">o</tspan><tspan x="270.01" y="21.6">w </tspan><tspan class="cls-55" x="290.98" y="21.6">l</tspan><tspan class="cls-56" x="302.22" y="21.6">e</tspan><tspan class="cls-50" x="313.71" y="21.6">v</tspan><tspan class="cls-43" x="324.86" y="21.6">e</tspan><tspan class="cls-57" x="337.04" y="21.6">l</tspan><tspan x="348.26" y="21.6">s </tspan><tspan class="cls-58" x="364.96" y="21.6">a</tspan><tspan class="cls-59" x="376.11" y="21.6">n</tspan><tspan x="388.27" y="21.6">d </tspan><tspan class="cls-60" x="0" y="43.2">w</tspan><tspan class="cls-61" x="15.61" y="43.2">i</tspan><tspan class="cls-47" x="27.26" y="43.2">t</tspan><tspan class="cls-62" x="39.84" y="43.2">h</tspan><tspan class="cls-63" x="49.98" y="43.2">o</tspan><tspan class="cls-64" x="64.65" y="43.2">u</tspan><tspan x="77.41" y="43.2">t </tspan><tspan class="cls-65" x="95.7" y="43.2">n</tspan><tspan class="cls-66" x="107.76" y="43.2">o</tspan><tspan class="cls-67" x="121.86" y="43.2">t</tspan><tspan class="cls-68" x="134.49" y="43.2">i</tspan><tspan class="cls-25" x="145.94" y="43.2">c</tspan><tspan class="cls-69" x="157.62" y="43.2">e</tspan><tspan class="cls-70" x="169.78" y="43.2">a</tspan><tspan class="cls-71" x="180.58" y="43.2">b</tspan><tspan class="cls-55" x="192.65" y="43.2">l</tspan><tspan x="203.89" y="43.2">e </tspan><tspan class="cls-72" x="221.23" y="43.2">s</tspan><tspan class="cls-56" x="232.27" y="43.2">y</tspan><tspan class="cls-73" x="243.88" y="43.2">m</tspan><tspan class="cls-74" x="256.64" y="43.2">p</tspan><tspan class="cls-75" x="267.04" y="43.2">t</tspan><tspan class="cls-76" x="278.37" y="43.2">o</tspan><tspan class="cls-77" x="293" y="43.2">m</tspan><tspan class="cls-78" x="305.67" y="43.2">s</tspan><tspan x="316.68" y="43.2">.</tspan></text><text class="cls-79" transform="translate(180.71 332.53)">sapiensoup.com/cannabis<tspan class="cls-80" x="159.18" y="0">-</tspan><tspan class="cls-81" x="162.53" y="0">breastfeeding</tspan></text></g></svg>